<svg width="28" height="26" viewBox="0 0 28 26" fill="none" xmlns="http://www.w3.org/2000/svg">
<path d="M3.14637 25.5992C1.82838 25.5992 0.891317 25.0806 0.335178 24.0434C-0.22096 23.0062 -0.0850267 22.0424 0.742979 21.152L9.34866 11.9157V3.70558H7.79808C7.35875 3.70558 6.99024 3.57421 6.69253 3.31149C6.39482 3.04877 6.24648 2.72401 6.24751 2.33723C6.24751 1.94953 6.39637 1.62432 6.69408 1.36159C6.99179 1.09887 7.35979 0.967965 7.79808 0.968877H20.2027C20.642 0.968877 21.0105 1.10024 21.3082 1.36296C21.6059 1.62568 21.7543 1.95044 21.7532 2.33723C21.7532 2.72493 21.6044 3.05014 21.3067 3.31286C21.009 3.57558 20.641 3.70649 20.2027 3.70558H18.6521V11.9157L27.2578 21.152C28.0847 22.0415 28.2207 23.0052 27.6656 24.0434C27.1105 25.0815 26.1734 25.6001 24.8544 25.5992H3.14637ZM3.14637 22.8625H24.8544L15.5509 12.8735V3.70558H12.4498V12.8735L3.14637 22.8625Z" fill="#555555"/>
</svg>
