<svg width="18" height="18" viewBox="0 0 18 18" fill="none" xmlns="http://www.w3.org/2000/svg">
<path d="M17.12 17L13.2596 13.1396M13.2596 13.1396C13.9199 12.4793 14.4437 11.6953 14.8011 10.8326C15.1585 9.96978 15.3424 9.04507 15.3424 8.11121C15.3424 7.17735 15.1585 6.25264 14.8011 5.38987C14.4437 4.5271 13.9199 3.74316 13.2596 3.08283C12.5993 2.42249 11.8153 1.89868 10.9526 1.54131C10.0898 1.18394 9.16507 1 8.23121 1C7.29735 1 6.37264 1.18394 5.50986 1.54131C4.64709 1.89868 3.86316 2.42249 3.20282 3.08283C1.86921 4.41644 1.12 6.2252 1.12 8.11121C1.12 9.99722 1.86921 11.806 3.20282 13.1396C4.53643 14.4732 6.3452 15.2224 8.23121 15.2224C10.1172 15.2224 11.926 14.4732 13.2596 13.1396Z" stroke="#1CBCC9" stroke-width="1.5" stroke-linecap="round" stroke-linejoin="round"/>
</svg>
